<svg viewBox="0 0 512 512" xmlns="http://www.w3.org/2000/svg">
  <g fill-rule="nonzero" fill="none">
    <path fill="#FC6471" d="M0 0h512v512H0"/>
    <path d="M181.12 136.436C172.676 167.228 184.817 212.69 236 256c80.053 67.737 100.382 117.557 60.987 149.46-10.757 4.61-23.003 6.917-36.736 6.917-29.5 0-51.47-7.693-65.905-23.08-14.44-15.387-22.22-39.94-23.345-73.655l58.875-8.828c.25 19.127 2.594 33.012 7.03 41.655 4.44 8.644 11.095 12.966 19.97 12.966 11.625 0 17.438-7.356 17.438-22.07 0-8.214-1.5-15.785-4.5-22.712s-6.688-12.843-11.063-17.747c-4.375-4.904-10.5-10.667-18.375-17.287l-27.563-23.356c-6.625-5.64-12.124-10.79-16.5-15.448-4.375-4.66-8.656-10.207-12.843-16.644-4.19-6.436-7.28-13.578-9.28-21.425-2.003-7.847-3-16.49-3-25.93 0-16.59 3.31-30.716 9.93-42.38zm32.794-28.988c12.465-5.555 27.222-8.37 44.275-8.448 9.25 0 17.654.98 25.216 2.943 7.564 1.96 13.94 4.536 19.126 7.724 5.188 3.187 9.75 7.203 13.688 12.046 3.937 4.843 7.062 9.685 9.375 14.528 2.31 4.845 4.25 10.3 5.81 16.37 1.564 6.07 2.626 11.617 3.19 16.644.56 5.027.967 10.42 1.217 16.184l-59.437 7.54c-.125-5.15-.28-9.41-.47-12.782-.186-3.37-.53-6.957-1.03-10.758-.5-3.8-1.187-6.866-2.063-9.196-.875-2.328-2.03-4.504-3.468-6.527-1.44-2.023-3.25-3.464-5.44-4.322-2.186-.857-4.78-1.225-7.78-1.103-6 .123-10.594 2.606-13.78 7.45-3.19 4.842-4.782 10.267-4.782 16.274 0 5.764.718 11.005 2.156 15.726 1.437 4.72 3.937 9.287 7.5 13.7 3.562 4.415 6.468 7.725 8.72 9.932 2.25 2.207 5.998 5.64 11.248 10.3l26.44 22.796c7.25 6.377 13.5 12.476 18.75 18.3s10.25 12.445 15 19.862c4.75 7.418 8.344 15.57 10.78 24.46 2.44 8.89 3.658 18.42 3.658 28.598 0 15.676-3.784 29.45-11.352 41.32 9.234-30.804-2.474-77.02-54.462-121.008-79.298-67.098-99.993-116.616-62.086-148.552z" fill="#FFF"/>
  </g>
</svg>
